<?xml version="1.0" standalone="no"?>
<!DOCTYPE svg PUBLIC "-//W3C//DTD SVG 20010904//EN"
 "http://www.w3.org/TR/2001/REC-SVG-20010904/DTD/svg10.dtd">
<svg version="1.0" xmlns="http://www.w3.org/2000/svg"
 width="200.000000pt" height="200.000000pt" viewBox="0 0 200.000000 200.000000"
 preserveAspectRatio="xMidYMid meet">

<g transform="translate(0.000000,200.000000) scale(0.100000,-0.100000)"
fill="#000000" stroke="none">
<path d="M199 1977 c-90 -25 -159 -99 -179 -190 -8 -37 -10 -281 -8 -822 3
-766 3 -770 24 -810 30 -56 71 -94 129 -121 l50 -24 785 0 785 0 50 24 c58 27
99 65 129 121 21 40 21 44 24 819 3 866 4 845 -63 923 -19 23 -56 52 -83 65
l-47 23 -775 2 c-592 1 -786 -1 -821 -10z m971 -617 l0 -60 -70 0 -70 0 0
-300 0 -300 70 0 70 0 0 -65 0 -65 -135 0 -135 0 0 130 0 130 -159 0 -159 0
-12 -80 -12 -80 -44 0 c-24 0 -44 2 -44 5 0 4 16 85 26 133 4 21 1 22 -60 22
l-64 0 -13 -80 -13 -80 -43 0 -44 0 6 33 c3 17 9 53 14 80 l8 47 -28 0 c-28 0
-29 2 -29 44 0 44 0 45 37 48 l38 3 12 70 c17 98 17 95 -22 95 -34 0 -35 1
-35 39 0 40 0 40 42 43 l42 3 14 78 14 77 45 0 c37 0 44 -3 39 -17 -4 -16 -26
-131 -26 -140 0 -2 28 -3 63 -1 l62 3 14 78 13 77 43 0 42 0 -9 -56 c-17 -110
-30 -99 112 -99 l125 0 3 123 3 122 134 0 135 0 0 -60z m500 -365 l0 -425
-135 0 -136 0 3 62 3 63 68 3 67 3 0 299 0 300 -70 0 -70 0 0 60 0 60 135 0
135 0 0 -425z"/>
<path d="M415 1078 c-4 -14 -25 -140 -25 -151 0 -4 27 -7 59 -7 65 0 64 -2 75
75 4 22 9 52 12 68 l6 27 -62 0 c-40 0 -62 -4 -65 -12z"/>
<path d="M625 1078 c-4 -14 -25 -140 -25 -151 0 -4 68 -7 150 -7 l150 0 0 85
0 85 -135 0 c-100 0 -137 -3 -140 -12z"/>
</g>
</svg>
